<?xml version="1.0" encoding="UTF-8"?>
<svg xmlns="http://www.w3.org/2000/svg" viewBox="0 0 1200 550">
  <defs>
  <filter id="g1" x="-40%" y="-40%" width="180%" height="180%">
    <feGaussianBlur stdDeviation="8" result="b"/>
    <feComposite in="SourceGraphic" in2="b" operator="over"/>
  </filter>
  <filter id="g2" x="-30%" y="-30%" width="160%" height="160%">
    <feGaussianBlur stdDeviation="4" result="b"/>
    <feComposite in="SourceGraphic" in2="b" operator="over"/>
  </filter>
  <filter id="g3" x="-20%" y="-20%" width="140%" height="140%">
    <feGaussianBlur stdDeviation="2" result="b"/>
    <feComposite in="SourceGraphic" in2="b" operator="over"/>
  </filter>
  <filter id="soft" x="-50%" y="-50%" width="200%" height="200%">
    <feGaussianBlur stdDeviation="12"/>
  </filter>
  <linearGradient id="bgG" x1="0" y1="0" x2="0" y2="1">
    <stop offset="0%" stop-color="#060910"/>
    <stop offset="50%" stop-color="#0A0F1D"/>
    <stop offset="100%" stop-color="#060910"/>
  </linearGradient>
  <linearGradient id="oG" x1="0" y1="0" x2="0" y2="1">
    <stop offset="0%" stop-color="#F97316" stop-opacity="0"/>
    <stop offset="30%" stop-color="#F97316" stop-opacity="1"/>
    <stop offset="70%" stop-color="#F97316" stop-opacity="1"/>
    <stop offset="100%" stop-color="#F97316" stop-opacity="0"/>
  </linearGradient>
  <radialGradient id="orbG">
    <stop offset="0%" stop-color="#F97316" stop-opacity="0.3"/>
    <stop offset="100%" stop-color="#F97316" stop-opacity="0"/>
  </radialGradient>
  <pattern id="grid" width="50" height="50" patternUnits="userSpaceOnUse">
    <path d="M 50 0 L 0 0 0 50" fill="none" stroke="#1B2A52" stroke-width="0.4" opacity="0.4"/>
  </pattern>
</defs>
  <rect width="1200" height="550" fill="url(#bgG)"/>
  <rect width="1200" height="550" fill="url(#grid)"/>
  <!-- ambient orbs -->
  <circle cx="180.0" cy="165.0" r="80" fill="url(#orbG)" opacity="0.5">
    <animate attributeName="r" values="80;100;80" dur="6s" repeatCount="indefinite"/>
  </circle>
  <circle cx="1020.0" cy="385.0" r="60" fill="url(#orbG)" opacity="0.4">
    <animate attributeName="r" values="60;80;60" dur="8s" repeatCount="indefinite"/>
  </circle>
  <circle cx="600.0" cy="55.0" r="40" fill="url(#orbG)" opacity="0.3">
    <animate attributeName="r" values="40;55;40" dur="5s" repeatCount="indefinite"/>
  </circle>

  <!-- city silhouette -->
  <rect x="0" y="446" width="40" height="44" fill="#1B2A52" opacity="0.12"/>
  <rect x="29" y="454" width="3" height="4" fill="#F97316" opacity="0.15150492311343672"/>
  <rect x="5" y="466" width="3" height="4" fill="#F97316" opacity="0.06304082489441243"/>
  <rect x="13" y="466" width="3" height="4" fill="#F97316" opacity="0.05446958291571055"/>
  <rect x="29" y="466" width="3" height="4" fill="#F97316" opacity="0.053980395452579544"/>
  <rect x="13" y="478" width="3" height="4" fill="#F97316" opacity="0.1317412220904825"/>
  <rect x="29" y="478" width="3" height="4" fill="#F97316" opacity="0.17141456850167403"/>
  <rect x="43" y="440" width="44" height="50" fill="#1B2A52" opacity="0.12"/>
  <rect x="48" y="448" width="3" height="4" fill="#F97316" opacity="0.10103757747769879"/>
  <rect x="64" y="448" width="3" height="4" fill="#F97316" opacity="0.10048918176689403"/>
  <rect x="48" y="460" width="3" height="4" fill="#F97316" opacity="0.14055890470503368"/>
  <rect x="56" y="460" width="3" height="4" fill="#F97316" opacity="0.1594597680040727"/>
  <rect x="64" y="460" width="3" height="4" fill="#F97316" opacity="0.1959673645969056"/>
  <rect x="80" y="460" width="3" height="4" fill="#F97316" opacity="0.17441069963794925"/>
  <rect x="48" y="472" width="3" height="4" fill="#F97316" opacity="0.17925603504661658"/>
  <rect x="56" y="472" width="3" height="4" fill="#F97316" opacity="0.15568577543223855"/>
  <rect x="80" y="484" width="3" height="4" fill="#F97316" opacity="0.10472482684551265"/>
  <rect x="95" y="434" width="31" height="56" fill="#1B2A52" opacity="0.12"/>
  <rect x="100" y="442" width="3" height="4" fill="#F97316" opacity="0.15527304701878272"/>
  <rect x="108" y="442" width="3" height="4" fill="#F97316" opacity="0.06071037643678225"/>
  <rect x="116" y="442" width="3" height="4" fill="#F97316" opacity="0.13012098155445623"/>
  <rect x="108" y="454" width="3" height="4" fill="#F97316" opacity="0.0904921740176417"/>
  <rect x="116" y="454" width="3" height="4" fill="#F97316" opacity="0.153224293764997"/>
  <rect x="116" y="466" width="3" height="4" fill="#F97316" opacity="0.05839069213239259"/>
  <rect x="100" y="478" width="3" height="4" fill="#F97316" opacity="0.1707568701156822"/>
  <rect x="108" y="478" width="3" height="4" fill="#F97316" opacity="0.05992829078173209"/>
  <rect x="116" y="478" width="3" height="4" fill="#F97316" opacity="0.13507700772177536"/>
  <rect x="140" y="433" width="30" height="57" fill="#1B2A52" opacity="0.12"/>
  <rect x="145" y="441" width="3" height="4" fill="#F97316" opacity="0.10934478515909965"/>
  <rect x="153" y="441" width="3" height="4" fill="#F97316" opacity="0.11882777788810983"/>
  <rect x="153" y="453" width="3" height="4" fill="#F97316" opacity="0.0894112412784403"/>
  <rect x="161" y="453" width="3" height="4" fill="#F97316" opacity="0.18467343254037155"/>
  <rect x="161" y="465" width="3" height="4" fill="#F97316" opacity="0.1264289440514697"/>
  <rect x="183" y="373" width="25" height="117" fill="#1B2A52" opacity="0.12"/>
  <rect x="188" y="381" width="3" height="4" fill="#F97316" opacity="0.05952915592279358"/>
  <rect x="204" y="381" width="3" height="4" fill="#F97316" opacity="0.12936715176487057"/>
  <rect x="188" y="393" width="3" height="4" fill="#F97316" opacity="0.17911695533517474"/>
  <rect x="204" y="393" width="3" height="4" fill="#F97316" opacity="0.15225655535398624"/>
  <rect x="188" y="405" width="3" height="4" fill="#F97316" opacity="0.09002377849288143"/>
  <rect x="196" y="405" width="3" height="4" fill="#F97316" opacity="0.06673282603938147"/>
  <rect x="204" y="405" width="3" height="4" fill="#F97316" opacity="0.11805855594938099"/>
  <rect x="188" y="417" width="3" height="4" fill="#F97316" opacity="0.1813779410567291"/>
  <rect x="204" y="417" width="3" height="4" fill="#F97316" opacity="0.0767977820795197"/>
  <rect x="188" y="429" width="3" height="4" fill="#F97316" opacity="0.18057778547551506"/>
  <rect x="204" y="429" width="3" height="4" fill="#F97316" opacity="0.14134553171572586"/>
  <rect x="196" y="441" width="3" height="4" fill="#F97316" opacity="0.13090685451794387"/>
  <rect x="204" y="441" width="3" height="4" fill="#F97316" opacity="0.12955305082927665"/>
  <rect x="188" y="465" width="3" height="4" fill="#F97316" opacity="0.18180828167347768"/>
  <rect x="196" y="465" width="3" height="4" fill="#F97316" opacity="0.09612711881039923"/>
  <rect x="188" y="477" width="3" height="4" fill="#F97316" opacity="0.19204241679469913"/>
  <rect x="204" y="477" width="3" height="4" fill="#F97316" opacity="0.060381877770257546"/>
  <rect x="223" y="444" width="37" height="46" fill="#1B2A52" opacity="0.12"/>
  <rect x="236" y="452" width="3" height="4" fill="#F97316" opacity="0.1324705390242416"/>
  <rect x="252" y="452" width="3" height="4" fill="#F97316" opacity="0.11347069103013305"/>
  <rect x="236" y="464" width="3" height="4" fill="#F97316" opacity="0.15948966036349643"/>
  <rect x="228" y="476" width="3" height="4" fill="#F97316" opacity="0.14748170864591803"/>
  <rect x="236" y="476" width="3" height="4" fill="#F97316" opacity="0.12763637615533863"/>
  <rect x="268" y="385" width="20" height="105" fill="#1B2A52" opacity="0.12"/>
  <rect x="273" y="393" width="3" height="4" fill="#F97316" opacity="0.13826601716155268"/>
  <rect x="273" y="405" width="3" height="4" fill="#F97316" opacity="0.05883106503144851"/>
  <rect x="273" y="429" width="3" height="4" fill="#F97316" opacity="0.09177158959468205"/>
  <rect x="281" y="429" width="3" height="4" fill="#F97316" opacity="0.1308850897092132"/>
  <rect x="273" y="441" width="3" height="4" fill="#F97316" opacity="0.1823574612711107"/>
  <rect x="281" y="441" width="3" height="4" fill="#F97316" opacity="0.08644958635935868"/>
  <rect x="273" y="453" width="3" height="4" fill="#F97316" opacity="0.1110589942228905"/>
  <rect x="273" y="465" width="3" height="4" fill="#F97316" opacity="0.10314463498843308"/>
  <rect x="281" y="465" width="3" height="4" fill="#F97316" opacity="0.1795755122554405"/>
  <rect x="281" y="477" width="3" height="4" fill="#F97316" opacity="0.14692696269424768"/>
  <rect x="291" y="417" width="32" height="73" fill="#1B2A52" opacity="0.12"/>
  <rect x="296" y="425" width="3" height="4" fill="#F97316" opacity="0.06639035483672061"/>
  <rect x="312" y="425" width="3" height="4" fill="#F97316" opacity="0.07102734456421618"/>
  <rect x="304" y="437" width="3" height="4" fill="#F97316" opacity="0.18117289311058699"/>
  <rect x="296" y="449" width="3" height="4" fill="#F97316" opacity="0.17839503387025596"/>
  <rect x="312" y="449" width="3" height="4" fill="#F97316" opacity="0.13108819071504577"/>
  <rect x="312" y="461" width="3" height="4" fill="#F97316" opacity="0.08545692358126242"/>
  <rect x="296" y="473" width="3" height="4" fill="#F97316" opacity="0.12220376269565594"/>
  <rect x="304" y="473" width="3" height="4" fill="#F97316" opacity="0.1853664298265823"/>
  <rect x="326" y="427" width="32" height="63" fill="#1B2A52" opacity="0.12"/>
  <rect x="331" y="435" width="3" height="4" fill="#F97316" opacity="0.16776940351911823"/>
  <rect x="347" y="435" width="3" height="4" fill="#F97316" opacity="0.15957579761231994"/>
  <rect x="331" y="447" width="3" height="4" fill="#F97316" opacity="0.1492806967926118"/>
  <rect x="339" y="447" width="3" height="4" fill="#F97316" opacity="0.07848468009014557"/>
  <rect x="339" y="459" width="3" height="4" fill="#F97316" opacity="0.05914363572147738"/>
  <rect x="339" y="471" width="3" height="4" fill="#F97316" opacity="0.18790806962481132"/>
  <rect x="347" y="471" width="3" height="4" fill="#F97316" opacity="0.058531936959302686"/>
  <rect x="331" y="483" width="3" height="4" fill="#F97316" opacity="0.17770138180161826"/>
  <rect x="364" y="445" width="32" height="45" fill="#1B2A52" opacity="0.12"/>
  <rect x="369" y="453" width="3" height="4" fill="#F97316" opacity="0.13545131152072776"/>
  <rect x="377" y="453" width="3" height="4" fill="#F97316" opacity="0.055961249343359665"/>
  <rect x="369" y="465" width="3" height="4" fill="#F97316" opacity="0.13478403857661342"/>
  <rect x="369" y="477" width="3" height="4" fill="#F97316" opacity="0.09712757941933642"/>
  <rect x="409" y="402" width="29" height="88" fill="#1B2A52" opacity="0.12"/>
  <rect x="422" y="410" width="3" height="4" fill="#F97316" opacity="0.0608814671739736"/>
  <rect x="430" y="410" width="3" height="4" fill="#F97316" opacity="0.1997681661281664"/>
  <rect x="414" y="422" width="3" height="4" fill="#F97316" opacity="0.060989108164944954"/>
  <rect x="414" y="434" width="3" height="4" fill="#F97316" opacity="0.18212962605296595"/>
  <rect x="422" y="434" width="3" height="4" fill="#F97316" opacity="0.1054290633108326"/>
  <rect x="414" y="446" width="3" height="4" fill="#F97316" opacity="0.15553098876310567"/>
  <rect x="422" y="446" width="3" height="4" fill="#F97316" opacity="0.19808495954472566"/>
  <rect x="430" y="446" width="3" height="4" fill="#F97316" opacity="0.05117346607282369"/>
  <rect x="414" y="458" width="3" height="4" fill="#F97316" opacity="0.09490681282999669"/>
  <rect x="422" y="458" width="3" height="4" fill="#F97316" opacity="0.19083950058906562"/>
  <rect x="430" y="470" width="3" height="4" fill="#F97316" opacity="0.09085223184722246"/>
  <rect x="414" y="482" width="3" height="4" fill="#F97316" opacity="0.15764182807081972"/>
  <rect x="430" y="482" width="3" height="4" fill="#F97316" opacity="0.08959758524456142"/>
  <rect x="448" y="454" width="28" height="36" fill="#1B2A52" opacity="0.12"/>
  <rect x="461" y="462" width="3" height="4" fill="#F97316" opacity="0.09150203359583775"/>
  <rect x="453" y="474" width="3" height="4" fill="#F97316" opacity="0.14556700659520697"/>
  <rect x="469" y="474" width="3" height="4" fill="#F97316" opacity="0.1327520631689587"/>
  <rect x="485" y="459" width="37" height="31" fill="#1B2A52" opacity="0.12"/>
  <rect x="498" y="467" width="3" height="4" fill="#F97316" opacity="0.1536529435633815"/>
  <rect x="498" y="479" width="3" height="4" fill="#F97316" opacity="0.11446800693211577"/>
  <rect x="537" y="455" width="47" height="35" fill="#1B2A52" opacity="0.12"/>
  <rect x="542" y="463" width="3" height="4" fill="#F97316" opacity="0.08151148075096312"/>
  <rect x="566" y="463" width="3" height="4" fill="#F97316" opacity="0.18262020521765138"/>
  <rect x="574" y="463" width="3" height="4" fill="#F97316" opacity="0.14309922652260693"/>
  <rect x="550" y="475" width="3" height="4" fill="#F97316" opacity="0.1796908544329946"/>
  <rect x="558" y="475" width="3" height="4" fill="#F97316" opacity="0.17161575799105955"/>
  <rect x="566" y="475" width="3" height="4" fill="#F97316" opacity="0.05371795428472831"/>
  <rect x="574" y="475" width="3" height="4" fill="#F97316" opacity="0.09982782019196432"/>
  <rect x="593" y="375" width="45" height="115" fill="#1B2A52" opacity="0.12"/>
  <rect x="598" y="383" width="3" height="4" fill="#F97316" opacity="0.17161239748615836"/>
  <rect x="614" y="383" width="3" height="4" fill="#F97316" opacity="0.06621434396044357"/>
  <rect x="622" y="383" width="3" height="4" fill="#F97316" opacity="0.17878898770066726"/>
  <rect x="598" y="395" width="3" height="4" fill="#F97316" opacity="0.11904548520184133"/>
  <rect x="614" y="395" width="3" height="4" fill="#F97316" opacity="0.08413932311116556"/>
  <rect x="606" y="407" width="3" height="4" fill="#F97316" opacity="0.1950333656072542"/>
  <rect x="622" y="407" width="3" height="4" fill="#F97316" opacity="0.10995175765400914"/>
  <rect x="630" y="407" width="3" height="4" fill="#F97316" opacity="0.1304323598718083"/>
  <rect x="598" y="419" width="3" height="4" fill="#F97316" opacity="0.06730126277771414"/>
  <rect x="606" y="419" width="3" height="4" fill="#F97316" opacity="0.07678517242586955"/>
  <rect x="614" y="419" width="3" height="4" fill="#F97316" opacity="0.08981995437844531"/>
  <rect x="630" y="419" width="3" height="4" fill="#F97316" opacity="0.15928175909790565"/>
  <rect x="606" y="431" width="3" height="4" fill="#F97316" opacity="0.12671345895042174"/>
  <rect x="622" y="431" width="3" height="4" fill="#F97316" opacity="0.0882083759207873"/>
  <rect x="630" y="431" width="3" height="4" fill="#F97316" opacity="0.050253691732794425"/>
  <rect x="598" y="443" width="3" height="4" fill="#F97316" opacity="0.13076779956391882"/>
  <rect x="606" y="443" width="3" height="4" fill="#F97316" opacity="0.1612925116759215"/>
  <rect x="614" y="443" width="3" height="4" fill="#F97316" opacity="0.10463322076718964"/>
  <rect x="630" y="443" width="3" height="4" fill="#F97316" opacity="0.09953000540638947"/>
  <rect x="606" y="455" width="3" height="4" fill="#F97316" opacity="0.15796313945209256"/>
  <rect x="630" y="455" width="3" height="4" fill="#F97316" opacity="0.1103600580586587"/>
  <rect x="614" y="467" width="3" height="4" fill="#F97316" opacity="0.19105455060952747"/>
  <rect x="622" y="467" width="3" height="4" fill="#F97316" opacity="0.18542083185988745"/>
  <rect x="630" y="467" width="3" height="4" fill="#F97316" opacity="0.09514248118483482"/>
  <rect x="598" y="479" width="3" height="4" fill="#F97316" opacity="0.05006089095459313"/>
  <rect x="614" y="479" width="3" height="4" fill="#F97316" opacity="0.13699771717935233"/>
  <rect x="622" y="479" width="3" height="4" fill="#F97316" opacity="0.11974822853705215"/>
  <rect x="630" y="479" width="3" height="4" fill="#F97316" opacity="0.08205521014836506"/>
  <rect x="648" y="439" width="45" height="51" fill="#1B2A52" opacity="0.12"/>
  <rect x="653" y="447" width="3" height="4" fill="#F97316" opacity="0.09256796074895413"/>
  <rect x="661" y="447" width="3" height="4" fill="#F97316" opacity="0.14288912080435634"/>
  <rect x="677" y="447" width="3" height="4" fill="#F97316" opacity="0.0852302897790026"/>
  <rect x="653" y="459" width="3" height="4" fill="#F97316" opacity="0.0721030943368659"/>
  <rect x="669" y="459" width="3" height="4" fill="#F97316" opacity="0.14169109595910204"/>
  <rect x="677" y="459" width="3" height="4" fill="#F97316" opacity="0.11831242525701338"/>
  <rect x="685" y="459" width="3" height="4" fill="#F97316" opacity="0.13635063491139773"/>
  <rect x="653" y="471" width="3" height="4" fill="#F97316" opacity="0.1075967701089127"/>
  <rect x="677" y="471" width="3" height="4" fill="#F97316" opacity="0.183898973931705"/>
  <rect x="685" y="471" width="3" height="4" fill="#F97316" opacity="0.18281978082647993"/>
  <rect x="653" y="483" width="3" height="4" fill="#F97316" opacity="0.08282617052184793"/>
  <rect x="661" y="483" width="3" height="4" fill="#F97316" opacity="0.15438676646123578"/>
  <rect x="669" y="483" width="3" height="4" fill="#F97316" opacity="0.1336108691050093"/>
  <rect x="677" y="483" width="3" height="4" fill="#F97316" opacity="0.06820378987840767"/>
  <rect x="703" y="393" width="41" height="97" fill="#1B2A52" opacity="0.12"/>
  <rect x="708" y="401" width="3" height="4" fill="#F97316" opacity="0.13931784777041298"/>
  <rect x="716" y="401" width="3" height="4" fill="#F97316" opacity="0.1837138888715656"/>
  <rect x="724" y="401" width="3" height="4" fill="#F97316" opacity="0.15789109419139508"/>
  <rect x="732" y="401" width="3" height="4" fill="#F97316" opacity="0.1745853754582123"/>
  <rect x="740" y="401" width="3" height="4" fill="#F97316" opacity="0.18458121548498935"/>
  <rect x="708" y="413" width="3" height="4" fill="#F97316" opacity="0.12120116552345801"/>
  <rect x="732" y="413" width="3" height="4" fill="#F97316" opacity="0.16487205264457483"/>
  <rect x="740" y="413" width="3" height="4" fill="#F97316" opacity="0.1440122655472672"/>
  <rect x="708" y="437" width="3" height="4" fill="#F97316" opacity="0.07075610922742337"/>
  <rect x="724" y="437" width="3" height="4" fill="#F97316" opacity="0.15596287125418284"/>
  <rect x="740" y="437" width="3" height="4" fill="#F97316" opacity="0.1313916710755873"/>
  <rect x="708" y="449" width="3" height="4" fill="#F97316" opacity="0.08102515842716154"/>
  <rect x="716" y="449" width="3" height="4" fill="#F97316" opacity="0.18572577175102656"/>
  <rect x="724" y="449" width="3" height="4" fill="#F97316" opacity="0.15432844797469525"/>
  <rect x="732" y="449" width="3" height="4" fill="#F97316" opacity="0.16483918641771045"/>
  <rect x="724" y="461" width="3" height="4" fill="#F97316" opacity="0.1780171925853657"/>
  <rect x="732" y="461" width="3" height="4" fill="#F97316" opacity="0.11285319239447329"/>
  <rect x="740" y="461" width="3" height="4" fill="#F97316" opacity="0.13191984646007587"/>
  <rect x="708" y="473" width="3" height="4" fill="#F97316" opacity="0.08308080414857284"/>
  <rect x="724" y="473" width="3" height="4" fill="#F97316" opacity="0.05435372299200729"/>
  <rect x="740" y="473" width="3" height="4" fill="#F97316" opacity="0.11064750037064558"/>
  <rect x="749" y="401" width="46" height="89" fill="#1B2A52" opacity="0.12"/>
  <rect x="754" y="409" width="3" height="4" fill="#F97316" opacity="0.19710829662783852"/>
  <rect x="762" y="409" width="3" height="4" fill="#F97316" opacity="0.18603932938801526"/>
  <rect x="770" y="409" width="3" height="4" fill="#F97316" opacity="0.14944996352542422"/>
  <rect x="786" y="409" width="3" height="4" fill="#F97316" opacity="0.18002770333926954"/>
  <rect x="778" y="421" width="3" height="4" fill="#F97316" opacity="0.1006250822110806"/>
  <rect x="786" y="421" width="3" height="4" fill="#F97316" opacity="0.0917384923458209"/>
  <rect x="754" y="433" width="3" height="4" fill="#F97316" opacity="0.11323472401381082"/>
  <rect x="762" y="433" width="3" height="4" fill="#F97316" opacity="0.12054602543195705"/>
  <rect x="770" y="433" width="3" height="4" fill="#F97316" opacity="0.057812841236488326"/>
  <rect x="778" y="433" width="3" height="4" fill="#F97316" opacity="0.08363332485796224"/>
  <rect x="754" y="445" width="3" height="4" fill="#F97316" opacity="0.05603872063111499"/>
  <rect x="778" y="445" width="3" height="4" fill="#F97316" opacity="0.14320034848792368"/>
  <rect x="754" y="457" width="3" height="4" fill="#F97316" opacity="0.06715841691639599"/>
  <rect x="762" y="457" width="3" height="4" fill="#F97316" opacity="0.11975509751528313"/>
  <rect x="786" y="457" width="3" height="4" fill="#F97316" opacity="0.19456021161518133"/>
  <rect x="754" y="469" width="3" height="4" fill="#F97316" opacity="0.16666878292631493"/>
  <rect x="778" y="469" width="3" height="4" fill="#F97316" opacity="0.18933307526106824"/>
  <rect x="786" y="469" width="3" height="4" fill="#F97316" opacity="0.18620392265711672"/>
  <rect x="762" y="481" width="3" height="4" fill="#F97316" opacity="0.0797494665637573"/>
  <rect x="770" y="481" width="3" height="4" fill="#F97316" opacity="0.17458574506704777"/>
  <rect x="786" y="481" width="3" height="4" fill="#F97316" opacity="0.09523740282315005"/>
  <rect x="808" y="445" width="39" height="45" fill="#1B2A52" opacity="0.12"/>
  <rect x="813" y="453" width="3" height="4" fill="#F97316" opacity="0.1348898833050974"/>
  <rect x="829" y="453" width="3" height="4" fill="#F97316" opacity="0.14922820110310342"/>
  <rect x="813" y="465" width="3" height="4" fill="#F97316" opacity="0.051897822524877964"/>
  <rect x="821" y="465" width="3" height="4" fill="#F97316" opacity="0.12353025574856126"/>
  <rect x="829" y="465" width="3" height="4" fill="#F97316" opacity="0.1043282057742608"/>
  <rect x="837" y="465" width="3" height="4" fill="#F97316" opacity="0.11896090214026196"/>
  <rect x="829" y="477" width="3" height="4" fill="#F97316" opacity="0.1475686121025112"/>
  <rect x="837" y="477" width="3" height="4" fill="#F97316" opacity="0.1879426485354151"/>
  <rect x="862" y="401" width="35" height="89" fill="#1B2A52" opacity="0.12"/>
  <rect x="867" y="409" width="3" height="4" fill="#F97316" opacity="0.15965393214576834"/>
  <rect x="883" y="409" width="3" height="4" fill="#F97316" opacity="0.17460965283359053"/>
  <rect x="867" y="421" width="3" height="4" fill="#F97316" opacity="0.0865795158786434"/>
  <rect x="875" y="421" width="3" height="4" fill="#F97316" opacity="0.1415497556345781"/>
  <rect x="867" y="433" width="3" height="4" fill="#F97316" opacity="0.07727597857365377"/>
  <rect x="883" y="433" width="3" height="4" fill="#F97316" opacity="0.10105082647464256"/>
  <rect x="891" y="433" width="3" height="4" fill="#F97316" opacity="0.15517756254983026"/>
  <rect x="883" y="445" width="3" height="4" fill="#F97316" opacity="0.0628419442937032"/>
  <rect x="891" y="445" width="3" height="4" fill="#F97316" opacity="0.12328667702731812"/>
  <rect x="867" y="457" width="3" height="4" fill="#F97316" opacity="0.15359140091697848"/>
  <rect x="875" y="457" width="3" height="4" fill="#F97316" opacity="0.12362320026178794"/>
  <rect x="883" y="457" width="3" height="4" fill="#F97316" opacity="0.06395800258320075"/>
  <rect x="867" y="469" width="3" height="4" fill="#F97316" opacity="0.09593090451951328"/>
  <rect x="875" y="469" width="3" height="4" fill="#F97316" opacity="0.12098907331392873"/>
  <rect x="883" y="469" width="3" height="4" fill="#F97316" opacity="0.11382557190578223"/>
  <rect x="891" y="469" width="3" height="4" fill="#F97316" opacity="0.09961869457938953"/>
  <rect x="867" y="481" width="3" height="4" fill="#F97316" opacity="0.09063746404642946"/>
  <rect x="901" y="392" width="43" height="98" fill="#1B2A52" opacity="0.12"/>
  <rect x="906" y="400" width="3" height="4" fill="#F97316" opacity="0.15352453312108277"/>
  <rect x="922" y="400" width="3" height="4" fill="#F97316" opacity="0.0914749440453034"/>
  <rect x="930" y="400" width="3" height="4" fill="#F97316" opacity="0.16403118430596242"/>
  <rect x="938" y="400" width="3" height="4" fill="#F97316" opacity="0.19707659456937698"/>
  <rect x="906" y="412" width="3" height="4" fill="#F97316" opacity="0.09443696948977168"/>
  <rect x="930" y="412" width="3" height="4" fill="#F97316" opacity="0.06898744397719725"/>
  <rect x="922" y="424" width="3" height="4" fill="#F97316" opacity="0.14568044826588916"/>
  <rect x="930" y="424" width="3" height="4" fill="#F97316" opacity="0.0653881470181641"/>
  <rect x="914" y="436" width="3" height="4" fill="#F97316" opacity="0.10110588988404387"/>
  <rect x="922" y="436" width="3" height="4" fill="#F97316" opacity="0.0878717585739459"/>
  <rect x="930" y="436" width="3" height="4" fill="#F97316" opacity="0.06711307110873868"/>
  <rect x="906" y="448" width="3" height="4" fill="#F97316" opacity="0.13655317347062274"/>
  <rect x="914" y="448" width="3" height="4" fill="#F97316" opacity="0.07275905104264346"/>
  <rect x="922" y="448" width="3" height="4" fill="#F97316" opacity="0.19236884635370471"/>
  <rect x="906" y="460" width="3" height="4" fill="#F97316" opacity="0.11242610321154928"/>
  <rect x="914" y="460" width="3" height="4" fill="#F97316" opacity="0.142762752874591"/>
  <rect x="922" y="460" width="3" height="4" fill="#F97316" opacity="0.10705670392198241"/>
  <rect x="930" y="460" width="3" height="4" fill="#F97316" opacity="0.0946029698776081"/>
  <rect x="938" y="460" width="3" height="4" fill="#F97316" opacity="0.11432447542106389"/>
  <rect x="906" y="472" width="3" height="4" fill="#F97316" opacity="0.059034545655881135"/>
  <rect x="914" y="472" width="3" height="4" fill="#F97316" opacity="0.06488503621621824"/>
  <rect x="922" y="472" width="3" height="4" fill="#F97316" opacity="0.1438272545609905"/>
  <rect x="914" y="484" width="3" height="4" fill="#F97316" opacity="0.07347989231647073"/>
  <rect x="922" y="484" width="3" height="4" fill="#F97316" opacity="0.15340567036771535"/>
  <rect x="930" y="484" width="3" height="4" fill="#F97316" opacity="0.054895978307138646"/>
  <rect x="951" y="402" width="42" height="88" fill="#1B2A52" opacity="0.12"/>
  <rect x="980" y="410" width="3" height="4" fill="#F97316" opacity="0.1384684383807887"/>
  <rect x="988" y="410" width="3" height="4" fill="#F97316" opacity="0.07967288206346963"/>
  <rect x="964" y="434" width="3" height="4" fill="#F97316" opacity="0.13925660559791073"/>
  <rect x="972" y="434" width="3" height="4" fill="#F97316" opacity="0.18817887934514577"/>
  <rect x="980" y="434" width="3" height="4" fill="#F97316" opacity="0.1203046955414243"/>
  <rect x="956" y="446" width="3" height="4" fill="#F97316" opacity="0.09083692897163947"/>
  <rect x="964" y="446" width="3" height="4" fill="#F97316" opacity="0.11566382953573971"/>
  <rect x="972" y="446" width="3" height="4" fill="#F97316" opacity="0.18341343339386806"/>
  <rect x="980" y="446" width="3" height="4" fill="#F97316" opacity="0.1405570461418866"/>
  <rect x="964" y="458" width="3" height="4" fill="#F97316" opacity="0.1790775309225907"/>
  <rect x="972" y="458" width="3" height="4" fill="#F97316" opacity="0.05311181843233006"/>
  <rect x="980" y="458" width="3" height="4" fill="#F97316" opacity="0.17321318678875755"/>
  <rect x="988" y="458" width="3" height="4" fill="#F97316" opacity="0.16446635062575582"/>
  <rect x="964" y="470" width="3" height="4" fill="#F97316" opacity="0.11633441066303045"/>
  <rect x="980" y="470" width="3" height="4" fill="#F97316" opacity="0.11538274806155047"/>
  <rect x="988" y="470" width="3" height="4" fill="#F97316" opacity="0.19535828540985556"/>
  <rect x="956" y="482" width="3" height="4" fill="#F97316" opacity="0.1112522140145023"/>
  <rect x="988" y="482" width="3" height="4" fill="#F97316" opacity="0.12432035314465067"/>
  <rect x="1006" y="409" width="50" height="81" fill="#1B2A52" opacity="0.12"/>
  <rect x="1011" y="417" width="3" height="4" fill="#F97316" opacity="0.13251449134576745"/>
  <rect x="1019" y="417" width="3" height="4" fill="#F97316" opacity="0.0971775735755252"/>
  <rect x="1035" y="417" width="3" height="4" fill="#F97316" opacity="0.11062625855011185"/>
  <rect x="1043" y="417" width="3" height="4" fill="#F97316" opacity="0.19821788221726316"/>
  <rect x="1051" y="417" width="3" height="4" fill="#F97316" opacity="0.13138903915357925"/>
  <rect x="1011" y="429" width="3" height="4" fill="#F97316" opacity="0.07813738120917907"/>
  <rect x="1027" y="429" width="3" height="4" fill="#F97316" opacity="0.14381131132175135"/>
  <rect x="1035" y="429" width="3" height="4" fill="#F97316" opacity="0.08053373575254108"/>
  <rect x="1043" y="429" width="3" height="4" fill="#F97316" opacity="0.18915091412666718"/>
  <rect x="1051" y="429" width="3" height="4" fill="#F97316" opacity="0.15473750436832584"/>
  <rect x="1019" y="441" width="3" height="4" fill="#F97316" opacity="0.14133075006229476"/>
  <rect x="1043" y="441" width="3" height="4" fill="#F97316" opacity="0.13283771135805997"/>
  <rect x="1011" y="453" width="3" height="4" fill="#F97316" opacity="0.1869394817726252"/>
  <rect x="1019" y="453" width="3" height="4" fill="#F97316" opacity="0.06761992236343364"/>
  <rect x="1027" y="453" width="3" height="4" fill="#F97316" opacity="0.12475632570607931"/>
  <rect x="1035" y="453" width="3" height="4" fill="#F97316" opacity="0.12633080226042676"/>
  <rect x="1051" y="453" width="3" height="4" fill="#F97316" opacity="0.19703669489050635"/>
  <rect x="1019" y="465" width="3" height="4" fill="#F97316" opacity="0.1075379019870725"/>
  <rect x="1027" y="465" width="3" height="4" fill="#F97316" opacity="0.1262361337389341"/>
  <rect x="1035" y="465" width="3" height="4" fill="#F97316" opacity="0.17960404016428821"/>
  <rect x="1051" y="465" width="3" height="4" fill="#F97316" opacity="0.11224136353270178"/>
  <rect x="1011" y="477" width="3" height="4" fill="#F97316" opacity="0.1261606513714485"/>
  <rect x="1019" y="477" width="3" height="4" fill="#F97316" opacity="0.092425847492424"/>
  <rect x="1035" y="477" width="3" height="4" fill="#F97316" opacity="0.19983534998440083"/>
  <rect x="1043" y="477" width="3" height="4" fill="#F97316" opacity="0.07228931275741837"/>
  <rect x="1051" y="477" width="3" height="4" fill="#F97316" opacity="0.10176859125395114"/>
  <rect x="1067" y="391" width="44" height="99" fill="#1B2A52" opacity="0.12"/>
  <rect x="1080" y="399" width="3" height="4" fill="#F97316" opacity="0.1804402524851103"/>
  <rect x="1088" y="399" width="3" height="4" fill="#F97316" opacity="0.08582083162493741"/>
  <rect x="1104" y="399" width="3" height="4" fill="#F97316" opacity="0.11161626433243674"/>
  <rect x="1080" y="411" width="3" height="4" fill="#F97316" opacity="0.18701452517294392"/>
  <rect x="1096" y="411" width="3" height="4" fill="#F97316" opacity="0.16885904910498956"/>
  <rect x="1104" y="411" width="3" height="4" fill="#F97316" opacity="0.07281579803153349"/>
  <rect x="1072" y="423" width="3" height="4" fill="#F97316" opacity="0.0689369404714083"/>
  <rect x="1080" y="423" width="3" height="4" fill="#F97316" opacity="0.09979920558970456"/>
  <rect x="1096" y="423" width="3" height="4" fill="#F97316" opacity="0.06495675466129677"/>
  <rect x="1104" y="423" width="3" height="4" fill="#F97316" opacity="0.0523021396872891"/>
  <rect x="1080" y="435" width="3" height="4" fill="#F97316" opacity="0.19549351910616597"/>
  <rect x="1096" y="435" width="3" height="4" fill="#F97316" opacity="0.08975341693151134"/>
  <rect x="1104" y="435" width="3" height="4" fill="#F97316" opacity="0.10962249858286603"/>
  <rect x="1088" y="447" width="3" height="4" fill="#F97316" opacity="0.13004334685952523"/>
  <rect x="1096" y="447" width="3" height="4" fill="#F97316" opacity="0.1440198768511982"/>
  <rect x="1104" y="447" width="3" height="4" fill="#F97316" opacity="0.12319212280852686"/>
  <rect x="1072" y="459" width="3" height="4" fill="#F97316" opacity="0.14261891924040848"/>
  <rect x="1088" y="459" width="3" height="4" fill="#F97316" opacity="0.09310685060630655"/>
  <rect x="1072" y="471" width="3" height="4" fill="#F97316" opacity="0.16405545394913984"/>
  <rect x="1080" y="471" width="3" height="4" fill="#F97316" opacity="0.06507608604842262"/>
  <rect x="1096" y="483" width="3" height="4" fill="#F97316" opacity="0.08662961482759526"/>
  <rect x="1104" y="483" width="3" height="4" fill="#F97316" opacity="0.15227005570290925"/>
  <rect x="1116" y="438" width="25" height="52" fill="#1B2A52" opacity="0.12"/>
  <rect x="1129" y="446" width="3" height="4" fill="#F97316" opacity="0.14295655528061232"/>
  <rect x="1121" y="458" width="3" height="4" fill="#F97316" opacity="0.07146765801927646"/>
  <rect x="1129" y="458" width="3" height="4" fill="#F97316" opacity="0.08809660091203135"/>
  <rect x="1129" y="470" width="3" height="4" fill="#F97316" opacity="0.18518141353983247"/>
  <rect x="1137" y="470" width="3" height="4" fill="#F97316" opacity="0.07369634331076805"/>
  <rect x="1121" y="482" width="3" height="4" fill="#F97316" opacity="0.10183484366646227"/>
  <rect x="1129" y="482" width="3" height="4" fill="#F97316" opacity="0.14584080535400185"/>
  <rect x="1137" y="482" width="3" height="4" fill="#F97316" opacity="0.0875147336611552"/>
  <rect x="1148" y="411" width="26" height="79" fill="#1B2A52" opacity="0.12"/>
  <rect x="1153" y="419" width="3" height="4" fill="#F97316" opacity="0.06599799011335414"/>
  <rect x="1161" y="431" width="3" height="4" fill="#F97316" opacity="0.05329093967893475"/>
  <rect x="1169" y="431" width="3" height="4" fill="#F97316" opacity="0.1093708611367051"/>
  <rect x="1161" y="443" width="3" height="4" fill="#F97316" opacity="0.1667467423655117"/>
  <rect x="1169" y="443" width="3" height="4" fill="#F97316" opacity="0.1865925430578066"/>
  <rect x="1153" y="455" width="3" height="4" fill="#F97316" opacity="0.17492583495097827"/>
  <rect x="1161" y="455" width="3" height="4" fill="#F97316" opacity="0.16636114694050713"/>
  <rect x="1153" y="467" width="3" height="4" fill="#F97316" opacity="0.08285068083921582"/>
  <rect x="1153" y="479" width="3" height="4" fill="#F97316" opacity="0.1651206161743196"/>
  <rect x="1161" y="479" width="3" height="4" fill="#F97316" opacity="0.07051688577411484"/>
  <rect x="1187" y="455" width="40" height="35" fill="#1B2A52" opacity="0.12"/>
  <rect x="1200" y="463" width="3" height="4" fill="#F97316" opacity="0.13693607080526043"/>
  <rect x="1208" y="463" width="3" height="4" fill="#F97316" opacity="0.06352000636193285"/>
  <rect x="1192" y="475" width="3" height="4" fill="#F97316" opacity="0.076346010566646"/>
  <rect x="1208" y="475" width="3" height="4" fill="#F97316" opacity="0.195723437181701"/>
  <rect x="1216" y="475" width="3" height="4" fill="#F97316" opacity="0.18702304617225457"/>

  <!-- ground plane glow -->
  <ellipse cx="600" cy="470" rx="400" ry="40" fill="#F97316" opacity="0.04" filter="url(#soft)"/>

  <!-- floating data particles -->
  <g opacity="0.5">
    <circle cx="200" cy="150" r="2" fill="#F97316">
      <animate attributeName="cy" values="150;120;150" dur="7s" repeatCount="indefinite"/>
      <animate attributeName="opacity" values="0.3;0.8;0.3" dur="7s" repeatCount="indefinite"/>
    </circle>
    <circle cx="350" cy="200" r="1.5" fill="#3B82F6">
      <animate attributeName="cy" values="200;170;200" dur="5s" repeatCount="indefinite"/>
      <animate attributeName="opacity" values="0.2;0.6;0.2" dur="5s" repeatCount="indefinite"/>
    </circle>
    <circle cx="850" cy="180" r="2" fill="#F97316">
      <animate attributeName="cy" values="180;140;180" dur="6s" repeatCount="indefinite"/>
      <animate attributeName="opacity" values="0.4;0.9;0.4" dur="6s" repeatCount="indefinite"/>
    </circle>
    <circle cx="950" cy="250" r="1.5" fill="#10B981">
      <animate attributeName="cy" values="250;220;250" dur="8s" repeatCount="indefinite"/>
    </circle>
    <circle cx="100" cy="300" r="1" fill="#F97316">
      <animate attributeName="cy" values="300;260;300" dur="9s" repeatCount="indefinite"/>
    </circle>
    <circle cx="1050" cy="130" r="1.5" fill="#F97316">
      <animate attributeName="cy" values="130;100;130" dur="6.5s" repeatCount="indefinite"/>
    </circle>
    <circle cx="500" cy="100" r="1" fill="#8B5CF6">
      <animate attributeName="cy" values="100;80;100" dur="4s" repeatCount="indefinite"/>
    </circle>
    <circle cx="700" cy="160" r="2" fill="#F97316">
      <animate attributeName="cy" values="160;130;160" dur="5.5s" repeatCount="indefinite"/>
    </circle>
  </g>

  <!-- signal line -->
  <!-- signal line -->
  <line x1="600" y1="0" x2="600" y2="550" stroke="url(#oG)" stroke-width="2" opacity="0.6"/>
  <circle r="3" fill="#F97316" filter="url(#g2)">
    <animate attributeName="cy" values="0;550" dur="4s" begin="0s" repeatCount="indefinite"/>
    <animate attributeName="cx" values="600;600" dur="4s" begin="0s" repeatCount="indefinite"/>
  </circle>
  <circle r="2" fill="#FFFFFF" filter="url(#g3)">
    <animate attributeName="cy" values="0;550" dur="4s" begin="2s" repeatCount="indefinite"/>
    <animate attributeName="cx" values="600;600" dur="4s" begin="2s" repeatCount="indefinite"/>
  </circle>

  <!-- horizontal signal paths -->
  <line x1="0" y1="470" x2="1200" y2="470" stroke="#F97316" stroke-width="1" opacity="0.15" stroke-dasharray="4 8"/>

  <!-- BOSS CHARACTER -->
  <g transform="translate(600,360) scale(1.8)">
    <!-- shadow -->
    <ellipse cx="0" cy="55" rx="30" ry="6" fill="#000" opacity="0.4"/>

    <!-- body -->
    <rect x="-22" y="5" width="44" height="50" rx="8" fill="#111C38" stroke="#1B2A52" stroke-width="1.5"/>
    <!-- chest panel -->
    <rect x="-12" y="14" width="24" height="14" rx="3" fill="#0A0F1D" stroke="#F97316" stroke-width="0.8" opacity="0.8"/>
    <text x="0" y="24" font-family="Arial,sans-serif" font-size="8" font-weight="bold" fill="#F97316" text-anchor="middle">CO</text>
    <!-- panel lines -->
    <line x1="-18" y1="35" x2="18" y2="35" stroke="#1B2A52" stroke-width="0.6"/>
    <line x1="-18" y1="42" x2="18" y2="42" stroke="#1B2A52" stroke-width="0.6"/>

    <!-- head halo -->
    <circle cx="0" cy="-22" r="34" fill="none" stroke="#F97316" stroke-width="1" opacity="0.2" filter="url(#g1)"/>

    <!-- head -->
    <circle cx="0" cy="-22" r="28" fill="#142042" stroke="#1B2A52" stroke-width="1.5"/>

    <!-- antenna -->
    <line x1="0" y1="-50" x2="0" y2="-58" stroke="#94A3B8" stroke-width="2" stroke-linecap="round"/>
    <circle cx="0" cy="-60" r="3" fill="#F97316" filter="url(#g2)">
      <animate attributeName="r" values="3;4;3" dur="2s" repeatCount="indefinite"/>
    </circle>

    <!-- visor -->
    <rect x="-20" y="-32" width="40" height="18" rx="9" fill="#0A0F1D" stroke="#F97316" stroke-width="1.2" filter="url(#g3)"/>
    <!-- eyes -->
    <circle cx="-8" cy="-23" r="3" fill="#F97316" filter="url(#g2)">
      <animate attributeName="r" values="3;3.5;3" dur="3s" repeatCount="indefinite"/>
    </circle>
    <circle cx="8" cy="-23" r="3" fill="#F97316" filter="url(#g2)">
      <animate attributeName="r" values="3;3.5;3" dur="3s" repeatCount="indefinite" begin="0.15s"/>
    </circle>
    <!-- smile -->
    <path d="M -6 -14 Q 0 -10 6 -14" fill="none" stroke="#94A3B8" stroke-width="1.2" stroke-linecap="round"/>

    <!-- left arm -->
    <rect x="-32" y="10" width="12" height="30" rx="6" fill="#142042" stroke="#1B2A52" stroke-width="1"/>
    <!-- right arm waving -->
    <g transform-origin="26 10">
      <animateTransform attributeName="transform" type="rotate" values="-15;15;-15" dur="1.5s" repeatCount="indefinite"/>
      <rect x="22" y="-10" width="12" height="30" rx="6" fill="#142042" stroke="#1B2A52" stroke-width="1"/>
    </g>
  </g>

  <!-- data ring around boss -->
  <g transform="translate(600,360)">
    <circle cx="0" cy="-40" r="130" fill="none" stroke="#1B2A52" stroke-width="0.8" stroke-dasharray="6 12" opacity="0.5">
      <animateTransform attributeName="transform" type="rotate" from="0" to="360" dur="30s" repeatCount="indefinite"/>
    </circle>
    <circle cx="0" cy="-40" r="160" fill="none" stroke="#F97316" stroke-width="0.5" stroke-dasharray="3 20" opacity="0.3">
      <animateTransform attributeName="transform" type="rotate" from="360" to="0" dur="25s" repeatCount="indefinite"/>
    </circle>
    <!-- orbiting nodes -->
    <circle cx="130" cy="-40" r="4" fill="#F97316" filter="url(#g3)" opacity="0.7">
      <animateTransform attributeName="transform" type="rotate" from="0 0 -40" to="360 0 -40" dur="30s" repeatCount="indefinite"/>
    </circle>
    <circle cx="-160" cy="-40" r="3" fill="#3B82F6" filter="url(#g3)" opacity="0.5">
      <animateTransform attributeName="transform" type="rotate" from="0 0 -40" to="-360 0 -40" dur="25s" repeatCount="indefinite"/>
    </circle>
  </g>

  <!-- title block with cinematic fade -->
  <g opacity="0">
    <animate attributeName="opacity" values="0;1" dur="2s" fill="freeze" begin="0.5s"/>
    <text x="600" y="80" font-family="Arial Black,Arial,sans-serif" font-size="56" font-weight="900" fill="#F8FAFC" text-anchor="middle" letter-spacing="12">CLEANOPS</text>
  </g>
  <g opacity="0">
    <animate attributeName="opacity" values="0;1" dur="2s" fill="freeze" begin="1.2s"/>
    <text x="600" y="110" font-family="Arial,sans-serif" font-size="13" fill="#94A3B8" text-anchor="middle" letter-spacing="6">AI-POWERED WASTE REPORTING &#38; SMART CLEANING MANAGEMENT</text>
  </g>
  <g opacity="0">
    <animate attributeName="opacity" values="0;1" dur="2s" fill="freeze" begin="2s"/>
    <text x="600" y="140" font-family="Arial,sans-serif" font-size="15" fill="#F97316" text-anchor="middle" letter-spacing="3" font-style="italic">From citizen reports to verified action.</text>
  </g>

  <!-- bottom accent line -->
  <rect x="0" y="547" width="1200" height="3" fill="#F97316" opacity="0.6"/>
</svg>